<mxfile host="app.diagrams.net" modified="2024-01-22T10:31:43.514Z" agent="Mozilla/5.0 (Windows NT 10.0; Win64; x64) AppleWebKit/537.36 (KHTML, like Gecko) Chrome/120.0.0.0 Safari/537.36" version="22.1.21" etag="hVz6YjhFwpLLJCVSkbTx" type="github">
  <diagram name="Page-1" id="INS--cEjQ7pFqXH2AcFS">
    <mxGraphModel>
      <root>
        <mxCell id="0" />
        <mxCell id="1" parent="0" />
      </root>
    </mxGraphModel>
  </diagram>
</mxfile>
